<svg width="597" height="220" viewBox="0 0 597 220" fill="none" xmlns="http://www.w3.org/2000/svg">
<path d="M543.657 159C464.86 316 198.36 105.5 0.360352 201" stroke="black" stroke-opacity="0.5" stroke-width="0.8" stroke-dasharray="8 8"/>
<path d="M565.858 101C565.858 97 573.587 40.5 559.087 0" stroke="black" stroke-opacity="0.5" stroke-width="0.8" stroke-dasharray="8 8"/>
<circle cx="565.087" cy="128" r="30.6" fill="white" stroke="#E58620" stroke-width="0.8" stroke-dasharray="8 8"/>
<path d="M563.332 132.28C562.412 133.587 561.112 134.24 559.432 134.24C557.752 134.24 556.446 133.587 555.512 132.28C554.592 130.96 554.132 129.2 554.132 127C554.132 124.8 554.592 123.047 555.512 121.74C556.446 120.42 557.752 119.76 559.432 119.76C561.112 119.76 562.412 120.42 563.332 121.74C564.266 123.047 564.732 124.8 564.732 127C564.732 129.2 564.266 130.96 563.332 132.28ZM556.552 131.34C557.246 132.367 558.206 132.88 559.432 132.88C560.659 132.88 561.612 132.367 562.292 131.34C562.986 130.313 563.332 128.867 563.332 127C563.332 125.133 562.986 123.687 562.292 122.66C561.612 121.633 560.659 121.12 559.432 121.12C558.206 121.12 557.246 121.633 556.552 122.66C555.872 123.687 555.532 125.133 555.532 127C555.532 128.867 555.872 130.313 556.552 131.34ZM566.335 134V132.74L571.375 127.66C572.815 126.22 573.535 124.987 573.535 123.96C573.535 123.067 573.255 122.373 572.695 121.88C572.148 121.373 571.488 121.12 570.715 121.12C569.275 121.12 568.228 121.78 567.575 123.1L566.395 122.4C566.835 121.533 567.435 120.88 568.195 120.44C568.955 119.987 569.795 119.76 570.715 119.76C571.835 119.76 572.815 120.14 573.655 120.9C574.508 121.647 574.935 122.667 574.935 123.96C574.935 124.773 574.708 125.553 574.255 126.3C573.801 127.047 573.161 127.833 572.335 128.66L568.335 132.64H575.235V134H566.335Z" fill="#E58620"/>
</svg>
